<svg width="512" height="512" viewBox="0 0 512 512" fill="none" xmlns="http://www.w3.org/2000/svg">
<g clip-path="url(#clip0_1_2)">
<g filter="url(#filter0_di_1_2)">
<rect x="14" y="14" width="484" height="484" rx="128" fill="black"/>
</g>
<g clip-path="url(#clip1_1_2)">
<path d="M112.865 231.936C112.865 229.699 113.826 227.562 115.516 226.045L203.791 146.799C205.034 143.918 207.952 141.897 211.358 141.897C211.539 141.897 211.707 142.177 211.888 142.189C212.076 142.173 212.265 142.373 212.458 142.373H303.277C327.949 142.373 342.682 153.635 342.682 173.301V374.16C342.682 396.151 325.003 414.517 303.273 414.517H152.755C131.132 414.517 112.865 395.775 112.865 374.16V231.936ZM203.151 169.135L139.869 226.417H203.151V169.135ZM152.759 398.509H303.273C315.74 398.509 326.267 387.099 326.267 374.16V173.301C326.267 169.087 326.267 158.381 303.273 158.381H219.566V233.945C219.566 238.364 215.889 242.426 211.358 242.426H129.281V374.16C129.281 387.099 140.037 398.509 152.759 398.509Z" fill="#59CE8F"/>
</g>
<g clip-path="url(#clip2_1_2)">
<path d="M423.001 98C403.374 99.3494 265.486 112.479 255.847 207.016C254.676 217.121 254.013 227.272 253.577 237.43L321.376 169.699C323.745 167.33 327.592 167.33 329.961 169.699C332.33 172.068 332.33 175.908 329.961 178.277L231.6 276.54C228.045 280.091 228.045 285.853 231.6 289.404C235.156 292.956 240.921 292.956 244.48 289.404L266.135 267.772C282.088 267.719 298.031 266.813 313.879 264.983C334.15 262.921 350.653 254.949 364.132 243.552H325.868L381.507 225.024C385.771 219.38 389.607 213.384 393.049 207.164H362.294L402.677 186.995C418.562 148.359 422.315 107.954 423.001 98Z" fill="#59CE8F"/>
</g>
</g>
<defs>
<filter id="filter0_di_1_2" x="2" y="14" width="504" height="504" filterUnits="userSpaceOnUse" color-interpolation-filters="sRGB">
<feFlood flood-opacity="0" result="BackgroundImageFix"/>
<feColorMatrix in="SourceAlpha" type="matrix" values="0 0 0 0 0 0 0 0 0 0 0 0 0 0 0 0 0 0 127 0" result="hardAlpha"/>
<feOffset dx="-2" dy="10"/>
<feGaussianBlur stdDeviation="5"/>
<feComposite in2="hardAlpha" operator="out"/>
<feColorMatrix type="matrix" values="0 0 0 0 0 0 0 0 0 0 0 0 0 0 0 0 0 0 0.25 0"/>
<feBlend mode="normal" in2="BackgroundImageFix" result="effect1_dropShadow_1_2"/>
<feBlend mode="normal" in="SourceGraphic" in2="effect1_dropShadow_1_2" result="shape"/>
<feColorMatrix in="SourceAlpha" type="matrix" values="0 0 0 0 0 0 0 0 0 0 0 0 0 0 0 0 0 0 127 0" result="hardAlpha"/>
<feMorphology radius="2" operator="erode" in="SourceAlpha" result="effect2_innerShadow_1_2"/>
<feOffset dx="-10" dy="10"/>
<feGaussianBlur stdDeviation="25"/>
<feComposite in2="hardAlpha" operator="arithmetic" k2="-1" k3="1"/>
<feColorMatrix type="matrix" values="0 0 0 0 0 0 0 0 0 0 0 0 0 0 0 0 0 0 0.25 0"/>
<feBlend mode="normal" in2="shape" result="effect2_innerShadow_1_2"/>
</filter>
<clipPath id="clip0_1_2">
<rect width="512" height="512" fill="white"/>
</clipPath>
<clipPath id="clip1_1_2">
<rect width="279.552" height="272.621" fill="white" transform="matrix(-1 0 0 1 367.552 141.897)"/>
</clipPath>
<clipPath id="clip2_1_2">
<rect width="194.069" height="194.069" fill="white" transform="translate(228.931 98)"/>
</clipPath>
</defs>
</svg>
